<?xml version="1.0" encoding="utf-8"?>
<!-- Generator: Adobe Illustrator 21.0.0, SVG Export Plug-In . SVG Version: 6.00 Build 0)  -->
<svg version="1.1" id="Слой_1" xmlns="http://www.w3.org/2000/svg" xmlns:xlink="http://www.w3.org/1999/xlink" x="0px" y="0px"
	 viewBox="0 0 132.3 140.3" style="enable-background:new 0 0 132.3 140.3;" xml:space="preserve">
<style type="text/css">
	.st0{fill:#676767;}
	.st1{display:none;}
	.st2{display:inline;fill:#676767;}
	.st3{display:none;fill:#676767;}
</style>
<g>
	<path class="st0" d="M126.5,128.4c-0.3,0-0.7,0-1,0c-38,0-76,0-114,0c-0.4,0-0.8,0-1.3,0c-0.1-8.9,1.5-17.5,5-25.7
		c4.7-11.3,12.1-20.5,22.2-27.3c2.4,1.7,4.6,3.5,6.9,5c16.9,10.6,39,8.8,54-4.4c0.6-0.6,1-0.5,1.7-0.1c13,9.2,21.1,21.6,24.7,37
		c0.8,3.5,1.1,7.1,1.6,10.7c0,0.3,0.1,0.6,0.2,0.9C126.5,125.7,126.5,127,126.5,128.4z"/>
	<path class="st0" d="M34.1,41.6c0-18.9,15.3-34.2,34.2-34.2c18.9,0,34.2,15.3,34.3,34.2c0,18.9-15.3,34.2-34.2,34.2
		C49.5,75.8,34.1,60.4,34.1,41.6z"/>
</g>
<g class="st1">
	<rect x="84.8" y="5.7" class="st2" width="22.8" height="129"/>
	<rect x="50.6" y="35.6" class="st2" width="22.8" height="99"/>
	<rect x="16.5" y="70.2" class="st2" width="22.8" height="64.5"/>
</g>
<path class="st3" d="M65.8,124.8c-6.2-8.3-12.5-16.2-18.2-24.5c-7.3-10.5-13.5-21.6-17.3-33.9c-7.5-24.4,7.5-45.3,28-50
	c21.5-4.9,44.1,11.1,45.6,33c0.4,5.6-0.2,11.5-1.6,16.9C98.1,82.2,78.8,112.8,65.8,124.8z M66.3,67.8c8.1,0,14.1-5.9,14.1-14
	c0-8.1-5.9-14.1-14-14.1c-8.1,0-14.1,5.9-14.1,14C52.2,61.8,58.2,67.8,66.3,67.8z"/>
</svg>
