<?xml version="1.0" encoding="utf-8"?>
<!-- Generator: Adobe Illustrator 21.0.0, SVG Export Plug-In . SVG Version: 6.00 Build 0)  -->
<svg version="1.1" id="Слой_1" xmlns="http://www.w3.org/2000/svg" xmlns:xlink="http://www.w3.org/1999/xlink" x="0px" y="0px"
	 viewBox="0 0 132.3 140.3" style="enable-background:new 0 0 132.3 140.3;" xml:space="preserve">
<style type="text/css">
	.st0{display:none;}
	.st1{display:inline;fill:#676767;}
	.st2{fill:#676767;}
	.st3{display:none;fill:#676767;}
</style>
<g class="st0">
	<path class="st1" d="M299.6,140.3c-0.4,0-0.7,0-1.1,0c-40.5,0-81,0-121.4,0c-0.4,0-0.8,0-1.4,0c-0.1-9.5,1.6-18.7,5.3-27.4
		c5.1-12.1,12.9-21.9,23.7-29.1c2.5,1.8,4.9,3.7,7.4,5.3c18,11.3,41.6,9.4,57.6-4.7c0.7-0.6,1.1-0.6,1.8-0.1
		c13.8,9.8,22.5,23,26.3,39.4c0.9,3.7,1.1,7.6,1.7,11.4c0,0.3,0.1,0.7,0.2,1C299.6,137.5,299.6,138.9,299.6,140.3z"/>
	<path class="st1" d="M201.1,47.8c0-20.1,16.3-36.5,36.5-36.5c20.1,0,36.5,16.3,36.5,36.4c0,20.1-16.3,36.5-36.5,36.5
		C217.5,84.3,201.1,67.9,201.1,47.8z"/>
</g>
<g>
	<rect x="84.8" y="5.7" class="st2" width="22.8" height="129"/>
	<rect x="50.6" y="35.6" class="st2" width="22.8" height="99"/>
	<rect x="16.5" y="70.2" class="st2" width="22.8" height="64.5"/>
</g>
<path class="st3" d="M492.3,138.4c-6.2-8.3-12.5-16.2-18.2-24.5c-7.3-10.5-13.5-21.6-17.3-33.9c-7.5-24.4,7.5-45.3,28-50
	c21.5-4.9,44.1,11.1,45.6,33c0.4,5.6-0.2,11.5-1.6,16.9C524.7,95.8,505.3,126.4,492.3,138.4z M492.8,81.4c8.1,0,14.1-5.9,14.1-14
	c0-8.1-5.9-14.1-14-14.1c-8.1,0-14.1,5.9-14.1,14C478.8,75.4,484.7,81.4,492.8,81.4z"/>
</svg>
