<?xml version="1.0" encoding="utf-8"?>
<!-- Generator: Adobe Illustrator 21.0.0, SVG Export Plug-In . SVG Version: 6.00 Build 0)  -->
<svg version="1.1" id="Слой_1" xmlns="http://www.w3.org/2000/svg" xmlns:xlink="http://www.w3.org/1999/xlink" x="0px" y="0px"
	 viewBox="0 0 495.7 528.4" style="enable-background:new 0 0 495.7 528.4;" xml:space="preserve">
<style type="text/css">
	.st0{fill:#7E7E7E;}
</style>
<path class="st0" d="M433.3,324.5c18.4,0,36.7,0,54.9,0c0.5,0.7,0.9,1.3,1.4,2c-28.6,27.5-57.1,55-85.3,82.2
	c-27.5-27.5-55.6-55.7-83.9-84.1c1.6,0,3.5,0,5.5,0c15.2,0,30.3-0.1,45.5,0.1c3.5,0,4.6-1,4.5-4.6c-1.8-57.8-40-107.5-95.8-124.5
	c-77.1-23.5-157.8,26.5-171.2,105.9c-12.8,76,38.6,145.9,115.4,156.4c27.3,3.7,53.4-1,78-13.5c6.8-3.5,13.6-6.2,21.5-4.7
	c13.1,2.5,21.9,11.6,23.9,24.8c1.7,11.5-4.7,23.3-16,29.1c-83.9,43.6-182.6,22.7-241.4-51.4c-22-27.7-34.8-59.5-39.1-94.8
	c-9.9-81,33-158.7,104.8-194.8c76.1-38.2,172-20.2,228.3,43.7c31.3,35.5,47.7,76.8,48.8,124.2C432.9,321.7,433.1,322.8,433.3,324.5z
	"/>
<path class="st0" d="M320.7,245.8c-9.4,14.7-18.7,29.4-28.1,44.2c-2.1,3.4-4.1,6.8-6.5,10.1c-5.1,7.2-8,14.2-7.1,24.1
	c1.9,19.4-14.1,35.8-34.5,38.3c-18,2.2-36.4-11.2-40.4-29.3c-6-27.2,16.8-50.9,44.3-46.3c2.6,0.4,6-0.3,8.2-1.7
	c19.8-12.3,39.4-24.9,59.1-37.4c1.4-0.9,2.8-1.7,4.2-2.6C320.2,245.3,320.4,245.6,320.7,245.8z"/>
<path class="st0" d="M279.2,87.3c-5,0-9.6,0.2-14.2-0.1c-3.6-0.2-5.1,1.1-4.9,4.8c0.2,6.8,0.1,13.5,0.1,20.6c-12.9,0-25.1,0-37.8,0
	c0-8.4,0-16.4,0-25.3c-6.5,0-12.6,0-18.9,0c0-21.3,0-41.9,0-63c25.1,0,50.3,0,75.8,0C279.2,45.2,279.2,65.9,279.2,87.3z"/>
<path class="st0" d="M378.9,161.1c8.2-8.2,16.8-16.9,25.2-25.4c8.6,8.5,17.4,17.3,26.1,25.9c-8.5,8.5-17.2,17.2-25.6,25.6
	C396.1,178.6,387.4,169.7,378.9,161.1z"/>
<path class="st0" d="M52.8,161.5c8.5-8.5,17.3-17.2,25.9-25.9c8.4,8.4,17.1,17.1,25.4,25.4c-8.5,8.5-17.3,17.3-25.9,25.9
	C70,178.8,61.2,170,52.8,161.5z"/>
</svg>
