<?xml version="1.0" encoding="utf-8"?>
<!-- Generator: Adobe Illustrator 21.0.0, SVG Export Plug-In . SVG Version: 6.00 Build 0)  -->
<svg version="1.1" id="Слой_1" xmlns="http://www.w3.org/2000/svg" xmlns:xlink="http://www.w3.org/1999/xlink" x="0px" y="0px"
	 viewBox="0 0 201.5 221.5" style="enable-background:new 0 0 201.5 221.5;" xml:space="preserve">
<style type="text/css">
	.st0{fill:#7E7E7E;}
</style>
<path class="st0" d="M13.4,49.6c0-5.5,0-11,0-16.5c0.2,0,0.4,0,0.6,0c8.6,0,17.1,0,25.7,0c0.5,0,0.7,0.2,0.8,0.5
	C52.1,58,63.6,82.4,75.2,106.8c0.2,0.4,0.4,0.5,0.8,0.5c18.9,0,37.8,0,56.7,0c0.4,0,0.6-0.1,0.8-0.5c10.4-18.9,20.8-37.8,31.2-56.7
	c0.1-0.2,0.2-0.3,0.3-0.6c4.8,2.6,9.6,5.3,14.4,7.9c-0.6,1.1-1.1,2.1-1.7,3.1c-10,18.2-20,36.4-30.1,54.6c-2.7,4.8-6.8,7.6-12.2,8.5
	c-0.7,0.1-1.5,0.1-2.3,0.1c-20.3,0-40.5,0-60.8,0c-0.5,0-0.7,0.1-0.9,0.5c-2.3,4.2-4.6,8.4-6.9,12.6c-0.2,0.4-0.4,0.9-0.4,1.3
	c-0.1,1.1,0.8,2,1.9,2c0.2,0,0.4,0,0.6,0c31.4,0,62.8,0,94.2,0c0.2,0,0.5,0,0.7,0c0,5.5,0,11,0,16.5c-0.2,0-0.4,0-0.5,0
	c-32.7,0-65.5,0-98.2,0c-8.3,0-15.2-5.9-16.4-14.1c-0.6-3.8,0.2-7.3,2-10.7c3.6-6.5,7.2-12.9,10.7-19.4c0.2-0.3,0.2-0.5,0-0.9
	c-9.7-20.5-19.5-41-29.2-61.5c-0.2-0.4-0.4-0.6-0.9-0.6c-5.1,0-10.2,0-15.2,0C13.8,49.6,13.6,49.6,13.4,49.6z"/>
<path class="st0" d="M136.9,66.1c-8.2,0-16.4,0-24.7,0c0,8.2,0,16.5,0,24.7c-5.5,0-11,0-16.5,0c0-8.2,0-16.4,0-24.7
	c-8.3,0-16.5,0-24.7,0c0-5.5,0-11,0-16.5c8.2,0,16.4,0,24.7,0c0-8.3,0-16.5,0-24.7c5.5,0,10.9,0,16.5,0c0,8.2,0,16.4,0,24.7
	c8.3,0,16.5,0,24.7,0C136.9,55.1,136.9,60.5,136.9,66.1z"/>
<path class="st0" d="M46.4,181.4c0-9.2,7.4-16.5,16.5-16.5c9.1,0,16.4,7.4,16.4,16.5c0,9.1-7.4,16.5-16.6,16.4
	C53.6,197.9,46.4,190.5,46.4,181.4z"/>
<path class="st0" d="M145.2,197.9c-9.1,0-16.4-7.4-16.4-16.5c0-9.2,7.3-16.5,16.4-16.5c9.1,0,16.5,7.4,16.4,16.5
	C161.6,190.6,154.3,197.9,145.2,197.9z"/>
</svg>
