<?xml version="1.0" encoding="utf-8"?>
<!-- Generator: Adobe Illustrator 21.0.0, SVG Export Plug-In . SVG Version: 6.00 Build 0)  -->
<svg version="1.1" id="Слой_1" xmlns="http://www.w3.org/2000/svg" xmlns:xlink="http://www.w3.org/1999/xlink" x="0px" y="0px"
	 viewBox="0 0 201.5 221.5" style="enable-background:new 0 0 201.5 221.5;" xml:space="preserve">
<style type="text/css">
	.st0{fill:#7E7E7E;}
</style>
<path class="st0" d="M31,136.3c1.3-3.3,3.8-4.3,7.1-4.3c9.9,0.1,19.8,0,29.8,0c5.5,0,7.2,1.8,7.2,7.2c0,13.7,0,27.4,0,41.1
	c0,5-1.8,6.8-6.8,6.8c-10.1,0-20.3-0.1-30.4,0c-3.3,0-5.6-1.2-6.9-4.2C31,167.4,31,151.8,31,136.3z"/>
<path class="st0" d="M174.5,115.5c0,21.3,0,42.5,0,63.8c0,6.5-1.5,7.9-8.1,7.9c-9.6,0-19.2,0-28.8,0c-5.4,0-7.1-1.8-7.2-7.2
	c0-43,0-86.1,0-129.1c0-5.3,1.8-7.1,7.2-7.1c9.9,0,19.8,0,29.8,0c5.1,0,7,1.9,7,7.1C174.5,72.3,174.5,93.9,174.5,115.5z"/>
<path class="st0" d="M80.8,137.5c0-14.2,0-28.5,0-42.7c0-5,1.8-6.9,6.8-6.9c10.1,0,20.3,0,30.4,0c4.8,0,6.9,2.1,6.9,7
	c0,28.5,0,57,0,85.5c0,4.7-2.1,6.8-6.6,6.8c-10.4,0-20.7,0.1-31.1,0c-4.6,0-6.4-1.9-6.4-6.6C80.8,166.2,80.8,151.8,80.8,137.5z
	 M91.9,99c0,25.8,0,51.4,0,77.2c7.4,0,14.5,0,21.8,0c0-25.8,0-51.4,0-77.2C106.5,99,99.4,99,91.9,99z"/>
</svg>
