<?xml version="1.0" encoding="utf-8"?>
<!-- Generator: Adobe Illustrator 21.0.0, SVG Export Plug-In . SVG Version: 6.00 Build 0)  -->
<svg version="1.1" id="Слой_1" xmlns="http://www.w3.org/2000/svg" xmlns:xlink="http://www.w3.org/1999/xlink" x="0px" y="0px"
	 viewBox="0 0 600 600" style="enable-background:new 0 0 600 600;" xml:space="preserve">
<style type="text/css">
	.st0{fill:#00C1C3;}
</style>
<g>
	<path class="st0" d="M562.1,393.1c-0.5,0-1,0.1-1.5,0.1c-33,0-66.1,0-99.1,0c-0.5,0-1,0-1.6,0c0-39.2,0-78.3,0-117.8
		c-54.4,40.7-108.5,81.2-162.7,121.8C243.6,358,190,318.9,136.3,279.5c0,39.3,0,78.4,0,117.6c-34.2,0-68.1,0-102.2,0
		c0-74,0-147.9,0-222.1c26.5,19.8,52.9,39.6,79.4,59.5c0-33.5,0-66.7,0-100.3c61.1,45.3,122.1,90.4,182.2,136.7
		c2-1.7,4.1-3.5,6.2-5.1c17.5-13.4,34.9-26.9,52.5-40.1c36.1-27.1,72.4-54.1,108.6-81.1c6.2-4.6,12.4-9.2,18.6-13.8
		c0.2-0.1,0.3-0.3,0.5-0.5c0.1,0,0.2,0,0.2,0c0,33.3,0,66.6,0,100.2c0.5-0.4,0.8-0.6,1.1-0.8c25.8-19.3,51.6-38.6,77.4-57.9
		c0.4-0.3,0.8-0.4,1.2-0.7C562.1,245.1,562.1,319.1,562.1,393.1z M459.8,179.7c-1.9,1.2-3.6,2-5.1,3.2
		c-12.3,9.1-24.6,18.3-36.8,27.5c-28.7,21.5-57.4,43-86.1,64.5c-5.7,4.3-11.5,8.6-17.2,12.9c-3.1,2.3-4.8,5.3-4.7,9.3
		c0.1,6.8-0.1,13.5-0.1,20.3c0,14.3,0,28.6,0.1,43c0,1.1,0.3,2.2,0.4,3.5c0.5-0.4,0.9-0.6,1.2-0.8c3.8-2.8,7.5-5.7,11.3-8.5
		c38-28.5,76.1-57,114.1-85.5c5.9-4.4,11.8-8.8,17.7-13.2c3.7-2.7,5.5-6.2,5.4-10.9c-0.2-10.4-0.2-20.8-0.2-31.2
		c0-10.7,0-21.4,0.1-32.2C459.8,181,459.8,180.6,459.8,179.7z M136.6,179.8c-0.1,0.1-0.3,0.2-0.4,0.3c0,0.4,0,0.9,0,1.3
		c0,4.6,0.1,9.1,0.1,13.7c-0.1,16-0.1,32-0.2,48c0,1.8,0,3.7,0.4,5.5c0.6,3.4,3,5.6,5.6,7.6c15.4,11.5,30.8,23,46.2,34.5
		c32,24,63.9,47.9,95.8,71.9c0.5,0.4,1,0.8,1.6,1.2c0.1-0.6,0.3-1,0.3-1.4c0.1-3.3,0.3-6.5,0.2-9.8c0-18.9-0.1-37.8-0.2-56.6
		c0-1.4-0.5-3.1-1.2-4.3c-0.9-1.5-2.2-3-3.6-4.1c-13.9-10.5-27.8-21-41.8-31.4c-31.5-23.6-63-47.1-94.5-70.6
		C142.2,183.5,139.4,181.7,136.6,179.8z M56.2,375.3c0.6,0,1.1,0,1.6,0c17.6,0,35.3,0,52.9,0c3,0,3.1-0.2,3.2-3.2c0-0.1,0-0.2,0-0.2
		c0-9.4,0.1-18.9,0.1-28.3c0-16.2,0-32.3-0.1-48.5c0-9.4-0.1-18.9-0.1-28.3c0-2.7-1-4.8-3.2-6.4c-17.9-13.4-35.7-26.9-53.6-40.3
		c-0.2-0.2-0.5-0.3-0.8-0.5C56.2,271.5,56.2,323.4,56.2,375.3z M539.8,219.5c-0.4,0.3-0.6,0.4-0.8,0.6
		c-17.9,13.4-35.8,26.9-53.7,40.3c-2.1,1.5-3,3.7-3.1,6.2c0,3.6,0,7.1,0,10.7c0,31.6,0,63.1,0,94.7c0,1.1,0.3,2.2,0.5,3.2
		c19.2,0,38.1,0,57.2,0C539.8,323.3,539.8,271.6,539.8,219.5z"/>
	<g>
		<path class="st0" d="M418.2,466.3c0.1-15.3,6-27.8,18.2-37.1c13.8-10.6,33.3-9.6,46.3,2c8.2,7.4,13.6,16.4,15.2,27.4
			c2.7,18.8-3.9,35.8-20,46.5c-13.4,8.9-31.3,7.4-43.5-3.1c-10.1-8.7-15.6-19.8-16.2-33.1C418.2,468,418.2,467.1,418.2,466.3z
			 M431.6,466.7c0.1,8.5,2.9,16.1,9.3,22.3c8.8,8.6,23.4,9.2,33,1.4c14.1-11.5,14.4-34.1,1.9-46.2c-9.7-9.3-24-9.9-34.1-1
			C434.8,449.3,431.6,457.2,431.6,466.7z"/>
		<path class="st0" d="M270.8,462.7c0.2-12.4,6.6-25.2,19.5-34.5c6.9-5,14.9-6.8,23.4-6.2c12.8,0.9,22.1,7.7,29.3,17.8
			c6.5,9.1,8.7,19.3,8,30.3c-1,14.2-7.5,25.4-18.8,33.8c-12.8,9.5-32.7,9.5-46.2-2.9C276.1,492,270.8,480.1,270.8,462.7z
			 M284.2,466.7c0.1,6.9,2,13.5,6.6,19.3c9.7,12.2,27.3,13.1,38,2.2c11.4-11.6,11.4-31.8,0.3-43.3c-9.6-10-24.6-10.8-34.9-1.7
			C287.4,449.3,284.3,457.2,284.2,466.7z"/>
		<path class="st0" d="M207.5,466.4c-0.1,14.8-5.9,27-17.4,36.2c-14.5,11.7-35,10.7-48.4-2.2c-7.8-7.4-12.8-16.3-14.1-27.1
			c-2.2-17.9,3.2-32.9,17.5-44.1c13.7-10.7,33-9.9,46.1,1.5c8.9,7.8,14.4,17.4,15.8,29.2C207.3,462.2,207.3,464.3,207.5,466.4z
			 M193.8,467.8c0-10.3-3.1-17.9-9.5-24.1c-8.4-8.2-21.8-9.3-31.3-2.5c-7.3,5.3-11.4,12.5-12.3,21.5c-0.8,9,1.2,17.1,7.2,24.1
			c8.5,9.9,23,12,33.3,4.6C189.8,485.3,193.7,476.8,193.8,467.8z"/>
		<path class="st0" d="M114.3,421.9c0,29.8,0,59.2,0,88.8c-4.4,0-8.8,0-13.2,0c0-17.5,0-35,0-52.5c-0.1,0-0.2-0.1-0.3-0.1
			c-8.8,9.7-17.7,19.5-26.6,29.3c-0.3-0.2-0.5-0.4-0.7-0.6c-12.9-14.4-25.9-28.8-38.8-43.2c-0.4-0.4-0.7-1.1-0.7-1.6
			c-0.1-6.3,0-12.6,0-19c0-0.2,0-0.4,0.1-0.9c13.5,14.8,26.7,29.5,40.1,44.3C87.6,451.5,100.8,436.8,114.3,421.9z"/>
		<path class="st0" d="M390.3,510.6c-4.6,0-9,0-13.5,0c0-24.6,0-49.1,0-73.8c-8.4,0-16.7,0-25,0c0-5,0-9.8,0-14.8
			c21.7,0,43.3,0,65,0c0,4.9,0,9.8,0,14.8c-8.8,0-17.6,0-26.5,0C390.3,461.4,390.3,485.9,390.3,510.6z"/>
		<path class="st0" d="M223.8,422c4.4,0,8.8,0,13.3,0c0,24.6,0,49.1,0,73.8c13.4,0,26.7,0,40,0c0,5,0,9.9,0,14.9
			c-17.8,0-35.5,0-53.3,0C223.8,481.1,223.8,451.6,223.8,422z"/>
		<path class="st0" d="M562,510.8c-1.4,0-2.5,0-3.5,0c-4.8,0-9.6,0-14.4,0c-0.5,0-1.2-0.2-1.5-0.5c-13.2-14.5-26.4-29-39.6-43.5
			c-0.1-0.1-0.1-0.1-0.1-0.3c2.8-3.1,5.7-6.3,8.5-9.4c10.3-11.3,20.6-22.7,30.8-34.1c0.7-0.8,1.4-1,2.4-1c5.7,0,11.4,0,17.5,0
			c-13.5,14.9-26.8,29.6-40.1,44.4C535.3,481.1,548.5,495.8,562,510.8z"/>
	</g>
</g>
</svg>
