<?xml version="1.0" encoding="utf-8"?>
<!-- Generator: Adobe Illustrator 21.0.0, SVG Export Plug-In . SVG Version: 6.00 Build 0)  -->
<svg version="1.1" id="Слой_1" xmlns="http://www.w3.org/2000/svg" xmlns:xlink="http://www.w3.org/1999/xlink" x="0px" y="0px"
	 viewBox="0 0 201.5 221.5" style="enable-background:new 0 0 201.5 221.5;" xml:space="preserve">
<style type="text/css">
	.st0{fill:#7E7E7E;}
</style>
<path class="st0" d="M195.2,135.7c-11.6,11.2-23.3,22.4-34.7,33.5c-11.5-11.4-23-22.7-34.9-34.4c1.1,0,1.8,0,2.5,0
	c5.9,0,11.8,0,17.7,0c2.3,0,2.6-0.4,2.4-2.7c-1.9-26.2-18.9-46-44.4-51.6c-28.9-6.4-59.3,13.6-64.9,42.6
	c-4.9,25.2,5.9,48.8,28.4,60.6c16.6,8.7,33.6,8.8,50.6,0.4c3.4-1.7,6.8-2.8,10.7-1.5c5,1.7,7.7,5.3,8.3,10.5
	c0.5,4.5-2.2,9.1-6.7,11.4c-12.8,6.6-26.4,9.8-40.8,9.2c-37.1-1.5-68.9-29.9-74.4-66.6c-5.9-39.4,17.4-76.8,55.2-87.9
	c45.4-13.4,91.3,14.5,100.3,60.4c0.9,4.3,1.1,8.8,1.4,13.3c0.1,1.5,0.6,2,2.1,2c6.3-0.1,12.6,0,18.9,0c0.8,0,1.5,0.2,2.3,0.3
	C195.1,135.3,195.2,135.5,195.2,135.7z"/>
<path class="st0" d="M125.6,102.4c-0.2,0.4-0.4,0.8-0.6,1.2c-4.6,7.2-9.2,14.4-13.8,21.6c-1.8,2.9-2.9,5.9-2.6,9.3
	c0.8,8.5-6.1,15.1-14.8,15.9c-7.6,0.8-15.2-5.6-16.4-13.7c-1.2-8,4.3-15.9,12.2-17.4c1.7-0.3,3.6-0.5,5.3-0.3
	c2.1,0.3,3.7-0.2,5.4-1.2c7.6-4.8,15.1-9.6,22.7-14.4c0.7-0.5,1.5-0.9,2.2-1.4C125.4,102.2,125.5,102.3,125.6,102.4z"/>
<path class="st0" d="M108.5,11.3c0,8.7,0,17.1,0,25.9c-1.7,0-3.3,0-4.9,0c-2.5-0.1-2.8,0.2-2.8,2.8c0,2.5,0,4.9,0,7.5
	c-5.2,0-10.2,0-15.6,0c0-3.3,0-6.7,0-10.3c-2.7,0-5.2,0-7.8,0c0-8.7,0-17.3,0-25.9C87.8,11.3,98,11.3,108.5,11.3z"/>
<path class="st0" d="M25.8,78c-3.4-3.4-6.8-6.8-10-10c3.4-3.4,6.9-7,10.3-10.3c3.2,3.2,6.6,6.6,9.9,9.9C32.8,70.9,29.3,74.4,25.8,78
	z"/>
<path class="st0" d="M170.3,67.9c-3.3,3.3-6.7,6.7-10,10c-3.5-3.3-7.2-6.7-10.9-10.3c3.7-3.5,7.2-6.8,10.8-10.1
	C163.4,60.8,166.9,64.4,170.3,67.9z"/>
</svg>
